<?xml version="1.0" standalone="no"?>
<!DOCTYPE svg PUBLIC "-//W3C//DTD SVG 20010904//EN"
 "http://www.w3.org/TR/2001/REC-SVG-20010904/DTD/svg10.dtd">
<svg version="1.0" xmlns="http://www.w3.org/2000/svg"
 width="225.000000pt" height="51.000000pt" viewBox="0 0 655.000000 81.000000"
 preserveAspectRatio="xMidYMid meet">

<g transform="translate(0.000000,81.000000) scale(0.100000,-0.100000)"
fill="#000000" stroke="none">
<path d="M243 799 c-197 -25 -290 -154 -219 -306 44 -93 115 -146 264 -199 71
-24 84 -43 41 -58 -41 -14 -93 1 -151 45 -29 22 -62 38 -73 37 -29 -4 -65 -64
-65 -108 0 -46 30 -93 88 -137 135 -102 358 -50 428 101 27 59 32 139 10 189
-22 52 -77 95 -175 137 -50 22 -95 40 -100 40 -5 0 -14 6 -20 14 -16 19 11 46
45 46 27 0 91 -30 136 -63 24 -18 32 -19 66 -9 75 23 122 100 97 159 -32 75
-218 131 -372 112z"/>
<path d="M3930 799 c-83 -14 -155 -54 -189 -102 -48 -71 -56 -109 -55 -257 1
-148 18 -222 71 -302 83 -125 316 -170 444 -85 50 33 77 96 90 213 11 93 11
104 -7 140 -26 53 -52 64 -164 64 -133 0 -144 -7 -148 -93 -3 -61 -1 -69 23
-93 23 -23 33 -26 71 -21 46 5 57 -5 25 -23 -48 -25 -130 1 -161 52 -14 23
-20 50 -20 92 0 80 18 133 57 173 28 27 41 33 77 33 43 0 44 -1 50 -40 8 -48
27 -60 100 -60 47 0 61 4 88 29 32 29 33 32 33 110 0 77 -1 81 -33 114 -18 19
-51 39 -72 46 -54 16 -214 22 -280 10z"/>
<path d="M693 780 c-53 -32 -57 -48 -49 -215 12 -276 33 -477 54 -504 33 -45
123 -49 159 -9 16 18 18 38 16 176 l-3 157 38 -65 c66 -112 160 -247 188 -269
39 -31 110 -26 135 9 40 54 77 287 86 540 5 150 5 156 -16 174 -27 25 -119 33
-179 17 -72 -20 -73 -28 -26 -351 4 -26 -11 -4 -58 85 -99 186 -143 246 -196
266 -41 16 -115 10 -149 -11z"/>
<path d="M2090 788 c-48 -26 -52 -51 -40 -246 6 -97 15 -242 19 -322 5 -80 12
-153 16 -163 24 -60 177 -62 190 -3 3 12 6 66 8 120 1 56 6 101 12 102 6 2 39
-41 75 -94 72 -106 115 -142 167 -142 47 0 111 35 119 65 14 57 -42 162 -145
268 l-56 59 60 51 c139 119 191 199 167 252 -25 54 -134 80 -198 47 -43 -22
-115 -93 -163 -161 l-31 -44 6 89 c8 120 2 128 -103 132 -51 2 -87 -2 -103
-10z"/>
<path d="M5125 781 c-78 -48 -83 -71 -66 -373 20 -362 27 -381 125 -381 92 0
96 8 96 182 l1 146 37 -70 c43 -81 109 -155 139 -155 33 0 71 48 120 147 25
51 47 93 48 93 2 0 3 -60 2 -132 -1 -109 1 -139 15 -164 20 -36 62 -57 108
-52 58 5 67 30 94 258 46 374 49 425 32 458 -28 55 -132 80 -195 48 -48 -25
-107 -100 -156 -199 -49 -101 -67 -123 -85 -112 -6 4 -35 57 -64 118 -59 125
-94 173 -143 193 -44 19 -72 17 -108 -5z"/>
<path d="M1513 775 c-121 -34 -167 -76 -167 -155 1 -90 58 -147 138 -137 29 4
47 14 61 32 56 74 71 85 122 85 26 0 56 -6 65 -14 23 -17 38 -59 38 -105 l0
-38 -47 24 c-42 21 -56 24 -113 18 -109 -10 -196 -61 -226 -132 -22 -50 -17
-130 10 -188 59 -129 213 -187 323 -124 l32 18 30 -29 c24 -25 38 -30 78 -30
57 0 110 29 117 62 4 21 23 279 33 457 8 132 -27 195 -132 242 -65 29 -280 37
-362 14z m215 -481 c13 -9 22 -26 22 -40 0 -25 -1 -25 -77 -22 -74 3 -78 4
-81 27 -3 15 3 30 14 38 24 18 95 16 122 -3z"/>
<path d="M2895 777 c-92 -31 -140 -72 -175 -149 -62 -141 -15 -405 94 -526
116 -128 343 -106 449 44 64 91 67 148 8 179 -49 25 -79 20 -99 -17 -30 -57
-67 -88 -104 -88 -71 1 -158 63 -158 115 0 21 3 22 81 17 125 -7 182 9 244 72
43 43 54 62 70 118 30 114 8 173 -81 218 -43 22 -64 25 -169 27 -78 2 -134 -2
-160 -10z m199 -203 c19 -7 21 -45 4 -62 -7 -7 -43 -12 -90 -12 -89 0 -99 11
-47 54 30 26 93 35 133 20z"/>
<path d="M4505 771 c-73 -21 -93 -31 -125 -66 -21 -23 -25 -36 -25 -91 0 -58
3 -66 31 -95 45 -44 108 -51 150 -16 16 14 36 36 43 50 28 52 124 65 166 22
21 -20 25 -34 25 -80 l0 -56 -31 23 c-67 49 -254 15 -318 -57 -97 -110 -38
-310 109 -373 49 -21 141 -18 189 5 l40 20 19 -26 c17 -23 26 -26 85 -26 58 0
70 3 93 26 25 25 26 32 34 190 5 90 14 198 20 239 37 233 -64 331 -340 329
-68 0 -126 -7 -165 -18z m219 -471 c20 -7 26 -16 26 -40 l0 -31 -77 3 c-66 3
-78 6 -81 21 -9 46 65 73 132 47z"/>
<path d="M6119 771 c-75 -24 -120 -60 -155 -123 -25 -47 -29 -65 -32 -158 -6
-157 29 -280 109 -381 119 -152 388 -106 485 83 32 63 31 91 -7 122 -41 35
-82 34 -106 -1 -43 -62 -80 -93 -115 -93 -51 0 -120 39 -140 79 -26 51 -18 56
78 52 146 -6 231 34 280 131 52 103 43 213 -21 260 -64 48 -269 63 -376 29z
m219 -203 c16 -16 15 -33 -4 -52 -11 -12 -36 -16 -95 -16 -43 0 -79 3 -79 6 0
16 24 45 48 58 33 18 113 21 130 4z"/>
</g>
</svg>
